<?xml version="1.0" encoding="utf-8"?>
<!-- Generator: Adobe Illustrator 16.0.0, SVG Export Plug-In . SVG Version: 6.00 Build 0)  -->
<!DOCTYPE svg PUBLIC "-//W3C//DTD SVG 1.1//EN" "http://www.w3.org/Graphics/SVG/1.1/DTD/svg11.dtd">
<svg version="1.1" id="Layer_1" xmlns="http://www.w3.org/2000/svg" xmlns:xlink="http://www.w3.org/1999/xlink" x="0px" y="0px"
	 width="12.5px" height="13.781px" viewBox="0 0 12.5 13.781" enable-background="new 0 0 12.5 13.781" xml:space="preserve">
<path d="M6.432,0c0.015,0.008,0.03,0.019,0.046,0.022c0.83,0.187,1.255,0.975,0.953,1.764c-0.007,0.021-0.014,0.04-0.021,0.067
	c0.163,0.059,0.324,0.108,0.48,0.174c1.195,0.504,1.908,1.413,2.229,2.653c0.206,0.799,0.339,1.61,0.435,2.431
	c0.061,0.513,0.205,1.009,0.403,1.486c0.144,0.343,0.367,0.625,0.662,0.85c0.046,0.035,0.092,0.071,0.139,0.106
	c0.615,0.466,0.875,1.224,0.677,1.969c-0.1,0.37-0.314,0.535-0.699,0.535H8.117H7.973c-0.074,1.171-0.983,1.736-1.758,1.724
	c-0.734-0.012-1.632-0.553-1.702-1.724H4.371c-1.202,0-2.404,0-3.606,0.001c-0.407,0-0.641-0.159-0.713-0.563
	c-0.138-0.761-0.028-1.455,0.666-1.933c0.509-0.35,0.8-0.837,0.979-1.417C1.89,7.521,1.954,6.875,2.047,6.233
	c0.102-0.696,0.234-1.389,0.479-2.051c0.423-1.142,1.23-1.89,2.383-2.271c0.054-0.018,0.109-0.036,0.171-0.057
	C4.956,1.572,4.913,1.287,4.989,0.996c0.136-0.514,0.467-0.834,0.98-0.967C5.998,0.021,6.025,0.01,6.055,0H6.432z M11.616,11.19
	c0.05-0.462-0.047-0.705-0.399-0.964c-0.45-0.33-0.812-0.733-1.032-1.25C9.934,8.389,9.762,7.775,9.69,7.141
	C9.604,6.383,9.475,5.634,9.286,4.895C9.042,3.95,8.528,3.229,7.61,2.838c-0.6-0.257-1.231-0.315-1.873-0.226
	c-1.131,0.16-1.962,0.735-2.385,1.819C3.099,5.085,2.99,5.778,2.877,6.469C2.792,7.004,2.719,7.541,2.604,8.069
	C2.402,9,1.96,9.782,1.145,10.323c-0.312,0.207-0.273,0.544-0.286,0.867H11.616z M5.388,12.063c0.005,0.5,0.421,0.884,0.909,0.854
	c0.447-0.026,0.831-0.438,0.79-0.854H5.388z M6.248,1.722C6.482,1.719,6.672,1.524,6.671,1.29c0-0.234-0.193-0.428-0.427-0.429
	c-0.239,0-0.435,0.199-0.431,0.438C5.817,1.533,6.015,1.725,6.248,1.722"/>
<path fill="#FFFFFF" d="M11.616,11.19H0.859c0.012-0.323-0.026-0.66,0.286-0.867C1.961,9.782,2.403,9,2.604,8.069
	c0.115-0.528,0.188-1.065,0.274-1.601c0.112-0.69,0.221-1.384,0.475-2.037c0.423-1.084,1.254-1.659,2.385-1.819
	c0.641-0.09,1.272-0.031,1.873,0.226c0.917,0.392,1.433,1.113,1.674,2.057c0.19,0.739,0.319,1.488,0.405,2.246
	c0.072,0.635,0.244,1.248,0.494,1.836c0.221,0.518,0.582,0.92,1.033,1.25C11.57,10.485,11.666,10.729,11.616,11.19"/>
<path fill="#FFFFFF" d="M5.388,12.063h1.699c0.041,0.416-0.343,0.828-0.79,0.854C5.808,12.946,5.393,12.563,5.388,12.063"/>
<path fill="#FFFFFF" d="M6.248,1.722C6.015,1.725,5.817,1.533,5.813,1.3C5.81,1.061,6.005,0.861,6.245,0.861
	C6.479,0.862,6.671,1.056,6.671,1.29C6.672,1.524,6.482,1.719,6.248,1.722"/>
</svg>
