<?xml version="1.0" encoding="UTF-8"?>
<svg width="424px" height="500px" viewBox="0 0 424 500" version="1.1" xmlns="http://www.w3.org/2000/svg" xmlns:xlink="http://www.w3.org/1999/xlink">
    <!-- Generator: Sketch 63.1 (92452) - https://sketch.com -->
    <title>checklist</title>
    <desc>Created with Sketch.</desc>
    <g id="Page-1" stroke="none" stroke-width="1" fill="none" fill-rule="evenodd">
        <g id="checklist" fill="#000000" fill-rule="nonzero">
            <path d="M389.56,46.592 L314.16,46.592 C310.716,30.956 296.628,19.232 279.804,19.232 L242.424,19.232 C237.664,7.504 226.444,0 213.668,0 C200.892,0 189.672,7.504 184.912,19.232 L147.064,19.232 C130.236,19.232 116.152,30.96 112.708,46.592 L37.776,46.592 C18.376,46.592 0.928,62.864 0.928,82.26 L0.928,464.664 C0.928,484.064 18.376,499.996 37.776,499.996 L389.556,499.996 C408.956,499.996 423.068001,484.06 423.068001,464.664 L423.068001,82.26 C423.068001,62.864 408.956,46.592 389.56,46.592 Z M213.668,15.644 C222.288,15.644 229.304,22.656 229.304,31.28 C229.304,39.904 222.288,46.916 213.668,46.916 C205.044,46.916 198.032,39.904 198.032,31.28 C198.032,22.656 205.044,15.644 213.668,15.644 Z M43.924,464.824 L43.924,73.952 L110.372,73.952 L110.372,86.66 C110.372,88.82 113.628,89.588 115.788,89.588 L311.072,89.588 C313.232,89.588 313.624,88.82 313.624,86.66 L313.624,73.952 L380.072,73.952 L380.072,464.824 L43.924,464.824 Z" id="Shape"></path>
            <path d="M343.056,183.396 L186.384,183.396 C182.068,183.396 178.568,186.892 178.568,191.212 C178.568,195.532 182.068,199.032 186.384,199.032 L343.056,199.032 C347.372,199.032 350.876,195.528 350.876,191.212 C350.876,186.896 347.372,183.396 343.056,183.396 Z" id="Path"></path>
            <path d="M343.056,245 L186.384,245 C182.068,245 178.568,248.496 178.568,252.816 C178.568,257.136 182.068,260.636 186.384,260.636 L343.056,260.636 C347.372,260.636 350.876,257.132 350.876,252.816 C350.876,248.5 347.372,245 343.056,245 Z" id="Path-Copy"></path>
            <path d="M343.056,308.472 L186.384,308.472 C182.068,308.472 178.568,311.972 178.568,316.288 C178.568,320.608 182.068,324.108 186.384,324.108 L343.056,324.108 C347.372,324.108 350.876,320.608 350.876,316.288 C350.876,311.972 347.372,308.472 343.056,308.472 Z" id="Path"></path>
            <path d="M343.056,371 L186.384,371 C182.068,371 178.568,374.5 178.568,378.816 C178.568,383.136 182.068,386.636 186.384,386.636 L343.056,386.636 C347.372,386.636 350.876,383.136 350.876,378.816 C350.876,374.5 347.372,371 343.056,371 Z" id="Path-Copy-2"></path>
            <path d="M156.616,161.672 C153.564,158.62 148.616,158.62 145.564,161.672 L115.72,191.512 L101.924,177.716 C98.872,174.664 93.924,174.664 90.872,177.716 C87.816,180.772 87.816,185.72 90.872,188.772 L110.196,208.096 C111.72,209.624 113.72,210.388 115.72,210.388 C117.724,210.388 119.724,209.624 121.248,208.096 L156.616,172.728 C159.672,169.672 159.672,164.728 156.616,161.672 Z" id="Path"></path>
            <path d="M156.616,224 C153.564,220.948 148.616,220.948 145.564,224 L115.72,253.84 L101.924,240.044 C98.872,236.992 93.924,236.992 90.872,240.044 C87.816,243.1 87.816,248.044 90.872,251.1 L110.196,270.424 C111.72,271.952 113.72,272.712 115.72,272.712 C117.724,272.712 119.724,271.948 121.248,270.424 L156.616,235.056 C159.672,232 159.672,227.052 156.616,224 Z" id="Path"></path>
            <path d="M156.616,286.464 C153.564,283.408 148.616,283.408 145.564,286.464 L115.72,316.304 L101.924,302.508 C98.872,299.452 93.924,299.452 90.872,302.508 C87.816,305.564 87.816,310.508 90.872,313.564 L110.196,332.888 C111.72,334.412 113.72,335.176 115.72,335.176 C117.724,335.176 119.724,334.416 121.248,332.888 L156.616,297.52 C159.672,294.464 159.672,289.516 156.616,286.464 Z" id="Path"></path>
            <path d="M156.616,349.064 C153.564,346.012 148.616,346.012 145.564,349.064 L115.72,378.904 L101.924,365.108 C98.872,362.056 93.924,362.056 90.872,365.108 C87.816,368.164 87.816,373.112 90.872,376.164 L110.196,395.488 C111.72,397.016 113.72,397.78 115.72,397.78 C117.724,397.78 119.724,397.016 121.248,395.488 L156.616,360.12 C159.672,357.064 159.672,352.12 156.616,349.064 Z" id="Path"></path>
        </g>
    </g>
</svg>