<?xml version="1.0" encoding="utf-8"?>
<!-- Generator: Adobe Illustrator 16.0.0, SVG Export Plug-In . SVG Version: 6.00 Build 0)  -->
<!DOCTYPE svg PUBLIC "-//W3C//DTD SVG 1.1//EN" "http://www.w3.org/Graphics/SVG/1.1/DTD/svg11.dtd">
<svg version="1.1" id="Layer_1" xmlns="http://www.w3.org/2000/svg" xmlns:xlink="http://www.w3.org/1999/xlink" x="0px" y="0px"
	 width="612px" height="792px" viewBox="0 0 612 792" enable-background="new 0 0 612 792" xml:space="preserve">
<circle fill="#4374B9" cx="307" cy="358" r="130"/>
<path fill="#F1F2F2" d="M380.516,354.943c-0.399,1.171-0.766,2.353-1.205,3.512c-3.923,10.45-14.426,18.369-27.613,17.514
	c-10.942-0.698-21.08-9.104-23.99-20.131c-0.264-0.991-0.135-1.787,0.412-2.688c6.602-10.968,13.159-21.963,19.728-32.95
	c0.389-0.645,0.766-1.297,1.295-2.195h-1.942c-9.344,0-18.692,0.006-28.041,0.006c-2.016-0.006-3.8,1.787-3.8,3.844
	c-0.006,9.459-0.006,18.915-0.006,28.379v48.699v1.903h1.808c8.004-0.011,16.008-0.067,24.012,0.039
	c1.621,0.022,3.292,0.501,4.834,1.063c1.357,0.496,1.977,1.7,1.937,3.231c-0.056,2.353-0.079,4.706-0.034,7.053
	c0.034,1.66-0.697,2.849-2.149,3.405c-1.272,0.495-2.668,0.912-4.013,0.912c-22.673,0.057-45.339,0.045-68.012,0.017
	c-1.081,0-2.201-0.231-3.231-0.568c-2.263-0.755-2.949-1.79-2.955-4.165c-0.005-2.15,0.062-4.323-0.022-6.473
	c-0.067-1.857,0.771-3.107,2.409-3.67c1.334-0.463,2.78-0.8,4.182-0.811c7.334-0.08,14.668-0.034,22.002-0.034h2.156
	c0.028-0.597,0.073-1.104,0.073-1.61c0.005-25.79,0.005-51.572,0-77.366c0-2.11-1.706-3.855-3.76-3.855H266.4h-1.75
	c0.405,0.721,0.675,1.216,0.962,1.694c6.664,11.153,13.323,22.312,20.027,33.445c0.54,0.895,0.675,1.688,0.405,2.688
	c-3.197,11.863-13.762,20.075-25.999,20.17c-12.321,0.09-23.01-7.976-26.376-19.86c-0.321-1.129-0.248-2.024,0.411-3.071
	c7.283-11.626,14.505-23.28,21.743-34.929c0.253-0.411,0.496-0.819,0.816-1.336c-2.055-1.616-2.628-3.788-2.42-6.271
	c0.236-2.775,2.291-5.119,5.066-5.443c1.75-0.203,3.541-0.155,5.308-0.155c10.166-0.011,20.325-0.017,30.485,0.017
	c1.042,0,1.728-0.271,2.42-1.118c4.813-5.879,13.875-5.896,18.738-0.022c0.743,0.903,1.48,1.14,2.556,1.134
	c11.167-0.022,22.335,0.017,33.501-0.034c3.04-0.011,5.623,0.788,6.771,3.791c1.098,2.882,0.754,5.673-1.699,7.897
	c-0.068,0.064-0.085,0.166-0.169,0.346c3.106,4.998,6.236,10.047,9.383,15.09c4.638,7.447,9.287,14.888,13.937,22.329V354.943z
	 M373.198,354.265c-6.603-10.607-13.069-20.998-19.683-31.633c-6.35,10.624-12.564,21.037-18.896,31.633H373.198z M279.149,354.293
	c-6.383-10.669-12.608-21.085-18.94-31.667c-6.613,10.658-13.086,21.08-19.661,31.667H279.149z"/>
</svg>
