<?xml version="1.0" encoding="utf-8"?>
<!-- Generator: Adobe Illustrator 16.0.0, SVG Export Plug-In . SVG Version: 6.00 Build 0)  -->
<!DOCTYPE svg PUBLIC "-//W3C//DTD SVG 1.1//EN" "http://www.w3.org/Graphics/SVG/1.1/DTD/svg11.dtd">
<svg version="1.1" id="Layer_1" xmlns="http://www.w3.org/2000/svg" xmlns:xlink="http://www.w3.org/1999/xlink" x="0px" y="0px"
	 width="612px" height="792px" viewBox="0 0 612 792" enable-background="new 0 0 612 792" xml:space="preserve">
<circle fill="#4374B9" cx="307" cy="358" r="130"/>
<path fill="#4374B9" d="M258.045,393.92v-10.109c-3.153-0.9-5.459-2.26-6.934-4.088c-1.47-1.83-2.201-4.044-2.201-6.645
	c0-2.637,0.828-4.852,2.49-6.645c1.668-1.8,3.878-2.83,6.645-3.106v-2.389h3.501v2.389c2.55,0.304,4.59,1.176,6.097,2.619
	c1.517,1.443,2.486,3.364,2.9,5.781l-6.098,0.791c-0.376-1.894-1.337-3.18-2.898-3.859v9.437c3.859,1.048,6.483,2.399,7.884,4.063
	c1.402,1.663,2.101,3.795,2.101,6.405c0,2.912-0.873,5.366-2.632,7.36c-1.77,1.994-4.219,3.217-7.352,3.666v4.503h-3.501v-4.382
	c-2.776-0.341-5.046-1.379-6.773-3.117c-1.741-1.736-2.853-4.191-3.331-7.361l6.295-0.67c0.252,1.286,0.745,2.397,1.448,3.326
	C256.391,392.827,257.181,393.498,258.045,393.92 M258.045,368.584c-0.952,0.332-1.7,0.873-2.266,1.646
	c-0.555,0.771-0.85,1.626-0.85,2.554c0,0.855,0.267,1.646,0.772,2.38c0.519,0.727,1.3,1.323,2.343,1.774V368.584z M261.546,394.252
	c1.204-0.221,2.182-0.782,2.936-1.673c0.763-0.891,1.139-1.939,1.139-3.151c0-1.076-0.321-2.004-0.951-2.785
	c-0.638-0.782-1.677-1.378-3.124-1.792V394.252z"/>
<path fill="#FFFFFF" d="M286.163,414.454h112.98c-1.197-11.721-2.316-22.734-3.484-34.2c-11.023,2.63-19.328,0.235-25.473-7.598
	c-6.127-7.794-5.223-16.59-1.533-25.268c-3.906-1.511-6.969-2.709-10.395-4.025c18.287-16.771,21.213-34.587,8.816-49.729
	c-10.553-12.858-30.656-15.353-43.928-5.37c-7.344,5.532-11.791,12.909-12.939,22.033c-1.775,14.273,5.018,24.737,16.57,33.243
	C296.033,351.1,285.903,372.166,286.163,414.454 M249.847,343.718c-36.379,10.189-40.982,39.342-42.843,70.913h72.355
	c1.596-11.524,1.958-23.187,5.064-34.083c3.108-10.896,8.949-21.026,13.66-31.647c-3.299-1.374-7.971-3.337-14.483-6.047
	c9.561-7.533,15.509-15.544,15.941-26.538c0.432-11.024-3.397-20.06-11.873-27.073c-12.173-10.082-31.02-9.331-42.485,1.659
	C230.656,304.802,231.692,318.564,249.847,343.718 M387.668,342.912c-9.434,0.138-16.541,7.285-16.502,16.61
	c0.039,9.208,7.441,16.59,16.648,16.629c9.248,0.059,17.473-8.188,17.178-17.159C404.68,350.059,396.836,342.776,387.668,342.912"/>
<path fill="#F1F2F2" d="M286.167,414.454c-0.26-42.289,9.871-63.354,40.62-70.933c-11.553-8.486-18.355-18.95-16.58-33.223
	c1.139-9.134,5.596-16.501,12.939-22.033c13.271-9.978,33.375-7.484,43.916,5.37c12.408,15.132,9.463,32.958-8.814,49.729
	c3.426,1.316,6.479,2.514,10.404,4.025c-3.689,8.678-4.582,17.473,1.533,25.268c6.135,7.833,14.449,10.228,25.482,7.598
	c1.158,11.465,2.277,22.479,3.475,34.2H286.167z"/>
<path fill="#F1F2F2" d="M249.843,343.718c-18.156-25.154-19.191-38.917-4.654-52.817c11.461-10.989,30.319-11.741,42.481-1.659
	c8.471,7.013,12.299,16.049,11.867,27.054c-0.431,11.013-6.38,19.024-15.941,26.557c6.513,2.71,11.2,4.673,14.484,6.047
	c-4.712,10.622-10.543,20.751-13.66,31.647c-3.097,10.896-3.464,22.559-5.064,34.083H207
	C208.86,383.061,213.464,353.907,249.843,343.718"/>
<path fill="#F1F2F2" d="M387.668,342.912c9.168-0.136,17.012,7.147,17.324,16.08c0.295,8.971-7.93,17.218-17.178,17.159
	c-9.207-0.039-16.609-7.421-16.648-16.629C371.127,350.197,378.234,343.05,387.668,342.912"/>
</svg>
