<?xml version="1.0" encoding="utf-8"?>
<!-- Generator: Adobe Illustrator 16.0.0, SVG Export Plug-In . SVG Version: 6.00 Build 0)  -->
<!DOCTYPE svg PUBLIC "-//W3C//DTD SVG 1.1//EN" "http://www.w3.org/Graphics/SVG/1.1/DTD/svg11.dtd">
<svg version="1.1" id="Layer_1" xmlns="http://www.w3.org/2000/svg" xmlns:xlink="http://www.w3.org/1999/xlink" x="0px" y="0px"
	 width="612px" height="792px" viewBox="0 0 612 792" enable-background="new 0 0 612 792" xml:space="preserve">
<circle fill="#4374B9" cx="307" cy="358" r="130"/>
<path fill="#FFFFFF" d="M287.428,415.461h105.769c-1.121-10.973-2.168-21.292-3.262-32.017c-10.319,2.472-18.095,0.211-23.848-7.113
	c-5.734-7.306-4.889-15.531-1.434-23.654c-3.657-1.416-6.524-2.537-9.732-3.777c17.121-15.696,19.859-32.375,8.253-46.545
	c-9.879-12.038-28.699-14.373-41.124-5.027c-6.874,5.174-11.036,12.075-12.111,20.621c-1.664,13.363,4.695,23.167,15.512,31.117
	C296.669,356.15,287.185,375.872,287.428,415.461 M253.432,349.249c-34.058,9.539-38.367,36.814-40.109,66.378h67.737
	c1.494-10.789,1.833-21.707,4.742-31.907c2.909-10.201,8.377-19.675,12.788-29.627c-3.087-1.296-7.462-3.125-13.559-5.671
	c8.951-7.048,14.519-14.546,14.923-24.838c0.405-10.311-3.18-18.775-11.114-25.346c-11.396-9.438-29.04-8.73-39.773,1.553
	C235.466,312.813,236.435,325.695,253.432,349.249 M382.455,348.477c-8.832,0.13-15.485,6.819-15.448,15.55
	c0.037,8.629,6.966,15.549,15.586,15.585c8.657,0.047,16.358-7.683,16.082-16.073C398.381,355.177,391.038,348.357,382.455,348.477"
	/>
<path fill="#F2F2F2" d="M287.434,415.461c-0.244-39.589,9.24-59.311,38.026-66.405c-10.815-7.94-17.185-17.745-15.521-31.107
	c1.065-8.555,5.237-15.447,12.111-20.621c12.425-9.346,31.245-7.011,41.114,5.018c11.616,14.171,8.859,30.858-8.251,46.555
	c3.206,1.24,6.064,2.361,9.74,3.777c-3.455,8.123-4.292,16.348,1.434,23.654c5.744,7.324,13.528,9.575,23.857,7.113
	c1.084,10.725,2.131,21.044,3.252,32.017H287.434z"/>
<path fill="#F2F2F2" d="M253.427,349.249c-16.996-23.554-17.966-36.437-4.356-49.459c10.729-10.283,28.382-10.991,39.769-1.553
	c7.93,6.57,11.515,15.035,11.11,25.335c-0.404,10.303-5.974,17.801-14.924,24.849c6.098,2.546,10.485,4.375,13.56,5.671
	c-4.411,9.952-9.87,19.426-12.787,29.627c-2.9,10.2-3.244,21.118-4.742,31.907h-67.737
	C215.06,386.063,219.37,358.788,253.427,349.249"/>
<path fill="#F2F2F2" d="M382.455,348.477c8.583-0.119,15.926,6.7,16.22,15.063c0.276,8.39-7.425,16.12-16.082,16.073
	c-8.62-0.036-15.549-6.956-15.586-15.585C366.97,355.296,373.623,348.606,382.455,348.477"/>
<path fill="#4374B9" d="M258.045,393.92v-10.109c-3.153-0.9-5.459-2.26-6.934-4.088c-1.47-1.83-2.201-4.044-2.201-6.645
	c0-2.637,0.828-4.852,2.49-6.645c1.668-1.8,3.878-2.83,6.645-3.106v-2.389h3.501v2.389c2.55,0.304,4.59,1.176,6.097,2.619
	c1.517,1.443,2.486,3.364,2.9,5.781l-6.098,0.791c-0.376-1.894-1.337-3.18-2.898-3.859v9.437c3.859,1.048,6.483,2.399,7.884,4.063
	c1.402,1.663,2.101,3.795,2.101,6.405c0,2.912-0.873,5.366-2.632,7.36c-1.77,1.994-4.219,3.217-7.352,3.666v4.503h-3.501v-4.382
	c-2.776-0.341-5.046-1.379-6.773-3.117c-1.741-1.736-2.853-4.191-3.331-7.361l6.295-0.67c0.252,1.286,0.745,2.397,1.448,3.326
	C256.391,392.827,257.181,393.498,258.045,393.92 M258.045,368.584c-0.952,0.332-1.7,0.873-2.266,1.646
	c-0.555,0.771-0.85,1.626-0.85,2.554c0,0.855,0.267,1.646,0.772,2.38c0.519,0.727,1.3,1.323,2.343,1.774V368.584z M261.546,394.252
	c1.204-0.221,2.182-0.782,2.936-1.673c0.763-0.891,1.139-1.939,1.139-3.151c0-1.076-0.321-2.004-0.951-2.785
	c-0.638-0.782-1.677-1.378-3.124-1.792V394.252z"/>
</svg>
