<?xml version="1.0" encoding="utf-8"?>
<!-- Generator: Adobe Illustrator 16.0.0, SVG Export Plug-In . SVG Version: 6.00 Build 0)  -->
<!DOCTYPE svg PUBLIC "-//W3C//DTD SVG 1.1//EN" "http://www.w3.org/Graphics/SVG/1.1/DTD/svg11.dtd">
<svg version="1.1" id="Layer_1" xmlns="http://www.w3.org/2000/svg" xmlns:xlink="http://www.w3.org/1999/xlink" x="0px" y="0px"
	 width="21.864px" height="29.265px" viewBox="0 0 21.864 29.265" enable-background="new 0 0 21.864 29.265" xml:space="preserve">
<path d="M10.452,0h0.875c1.61,0.394,2.782,1.276,3.209,2.979h1.448c1.373,0.001,1.373,0.001,1.614,1.445
	c0.989,0,2-0.005,3.011,0.001c1.109,0.006,1.252,0.147,1.253,1.271c0.002,7.447,0.002,14.895,0,22.342
	c-0.001,1.092-0.133,1.225-1.201,1.226c-6.472,0.002-12.942,0.002-19.414,0c-1.056,0-1.243-0.175-1.244-1.201
	c-0.004-7.477-0.004-14.953,0-22.43c0.001-1.008,0.21-1.201,1.252-1.207C2.27,4.419,3.283,4.424,4.28,4.424
	c0.23-1.444,0.23-1.444,1.607-1.445c0.351,0,0.705,0.036,1.048-0.016c0.187-0.027,0.463-0.169,0.511-0.32
	C7.924,1.149,9.06,0.434,10.452,0 M1.551,5.959v21.798h18.827V5.965H17.49c0,0.654-0.013,1.26,0.003,1.865
	c0.018,0.646-0.243,0.979-0.922,0.978C12.813,8.799,9.055,8.8,5.296,8.807C4.673,8.808,4.383,8.504,4.377,7.901
	C4.371,7.269,4.376,6.635,4.376,5.959H1.551z M16.019,4.423c-0.701,0-1.308-0.015-1.913,0.005c-0.595,0.02-0.9-0.229-1.002-0.833
	c-0.231-1.371-0.979-2.058-2.162-2.055C9.773,1.543,9,2.235,8.77,3.603C8.665,4.23,8.354,4.441,7.771,4.427
	C7.169,4.411,6.565,4.423,5.913,4.423v2.875h10.105V4.423z"/>
<path d="M9.191,21.269c1.003-3.012,2.006-6.022,3.008-9.034c0.047-0.138,0.06-0.311,0.151-0.406c0.272-0.28,0.576-0.531,0.868-0.793
	c0.233,0.323,0.608,0.62,0.675,0.976c0.251,1.347,0.398,2.712,0.591,4.069c0.126,0.893,0.262,1.784,0.395,2.681
	c0.073-0.018,0.15-0.011,0.178-0.045c0.293-0.369,0.536-1.011,0.876-1.064c0.843-0.138,1.73-0.038,2.594,0.042
	c0.16,0.016,0.412,0.396,0.396,0.588c-0.019,0.239-0.244,0.489-0.438,0.674c-0.104,0.1-0.342,0.125-0.498,0.091
	c-1.262-0.29-1.767,0.415-2.054,1.487c-0.128,0.475-0.296,0.964-0.563,1.368c-0.207,0.313-0.596,0.504-0.903,0.75
	c-0.22-0.305-0.578-0.586-0.634-0.918c-0.296-1.754-0.514-3.521-0.762-5.282c-0.057-0.403-0.129-0.804-0.233-1.454
	c-0.43,1.262-0.788,2.299-1.135,3.339c-0.71,2.128-1.415,4.258-2.12,6.389c-0.15,0.456-0.324,1.011-0.902,0.822
	c-0.3-0.098-0.605-0.591-0.664-0.944c-0.371-2.237-0.673-4.486-0.977-6.589c-0.485,0.349-0.924,0.853-1.46,0.999
	c-0.621,0.17-1.338,0.088-1.992-0.017c-0.247-0.04-0.603-0.447-0.602-0.688c0-0.239,0.37-0.491,0.604-0.71
	c0.066-0.062,0.23-0.051,0.34-0.027c1.181,0.245,1.758-0.314,2.005-1.422c0.106-0.478,0.295-0.959,0.554-1.372
	c0.204-0.327,0.572-0.551,0.867-0.821c0.236,0.315,0.623,0.604,0.683,0.95c0.324,1.867,0.566,3.749,0.842,5.625
	c0.035,0.25,0.091,0.498,0.138,0.747C9.076,21.274,9.134,21.271,9.191,21.269"/>
</svg>
