<?xml version="1.0" encoding="UTF-8"?>
<svg width="36px" height="36px" viewBox="0 0 36 36" version="1.1" xmlns="http://www.w3.org/2000/svg" xmlns:xlink="http://www.w3.org/1999/xlink">
    <!-- Generator: Sketch 63.1 (92452) - https://sketch.com -->
    <title>account-circle</title>
    <desc>Created with Sketch.</desc>
    <g id="Page-1" stroke="none" stroke-width="1" fill="none" fill-rule="evenodd">
        <g id="account-circle" fill="#409FFF" fill-rule="nonzero">
            <path d="M18,0 C8.064,0 0,8.064 0,18 C0,27.936 8.064,36 18,36 C27.936,36 36,27.936 36,18 C36,8.064 27.936,0 18,0 Z M18,5.4 C20.988,5.4 23.4,7.812 23.4,10.8 C23.4,13.788 20.988,16.2 18,16.2 C15.012,16.2 12.6,13.788 12.6,10.8 C12.6,7.812 15.012,5.4 18,5.4 Z M21.0608188,18.2169616 C21.4675349,18.2731946 21.88184,18.3417786 22.2967479,18.4243114 C22.356468,18.4362935 22.4248493,18.449994 22.5,18.4653168 C22.6604599,18.4980336 22.7889561,18.5267556 22.8854884,18.5514826 C25.8960354,19.2496077 28.7658969,20.7274021 28.8,23.6 C26.478,28.0342858 22.5,30.96 18,30.96 C13.5,30.96 9.522,28.0342858 7.2,23.6 C7.23529539,20.6269707 10.3004125,19.1479796 13.4248312,18.4800936 C13.5024274,18.4623127 13.5742035,18.4459049 13.6414191,18.4307052 C13.5694719,18.4496159 13.4971357,18.4646376 13.4248312,18.4800936 C13.2970852,18.5096987 13.155055,18.5429191 13,18.5795898 C12.7531942,18.6379598 12.5407508,18.6925392 12.36267,18.743328 L12.36267,18.743328 L12.36267,21.3978645 C10.8819376,22.6411188 10.108901,23.3633985 10.0435604,23.5647035 C9.94554948,23.866661 10.0435604,26.2970499 10.0435604,26.9558785 C10.0435604,27.6147072 11.1985742,27.6147072 11.1985742,26.9558785 C11.1985742,26.2970499 11.1322305,23.6862192 11.1985742,23.5647035 C11.2649178,23.4431878 11.7306371,22.7506712 12.36267,22.4665472 C12.9947029,22.1824232 13.0509768,22.2033152 13.6414191,22.4665472 C14.2318613,22.7297792 14.7287,23.4052675 14.8258883,23.5647035 C14.9230766,23.7241395 14.8258883,26.8253626 14.8258883,26.9558785 C14.8258883,27.5552482 15.9420793,27.5087947 15.9420793,26.9558785 C15.9420793,26.4029623 16.0724008,23.7715615 15.9420793,23.5647035 C15.8551983,23.4267982 15.0883116,22.7045185 13.6414191,21.3978645 L13.6414191,21.3978645 L13.641803,18.4350202 C13.775799,18.407981 13.9097776,18.3824036 14.0435048,18.3582341 C15.4906508,18.0966802 16.9083551,19.8665807 18,19.8665807 C18.8623847,19.8665807 19.9323928,18.060944 21.0608188,18.2169616 Z M21.984056,18.3676758 L21.984056,24.4719945 C21.3280187,24.8947909 21,25.3638045 21,25.8790352 C21,26.6518813 21.7409474,27.38 22.4732206,27.38 C23.2054938,27.38 24,26.673862 24,25.8790352 C24,25.3491507 23.6694644,24.8801371 23.0083932,24.4719945 L23.0083932,18.5862469 C22.9757646,18.5757011 22.9347963,18.564113 22.8854884,18.5514826 C22.6883055,18.5052763 22.4924596,18.463242 22.2967479,18.4243114 C22.1577194,18.3973316 22.0541194,18.3784851 21.984056,18.3676758 Z" id="Shape"></path>
        </g>
    </g>
</svg>
