<?xml version="1.0" encoding="utf-8"?>
<!-- Generator: Adobe Illustrator 16.0.0, SVG Export Plug-In . SVG Version: 6.00 Build 0)  -->
<!DOCTYPE svg PUBLIC "-//W3C//DTD SVG 1.1//EN" "http://www.w3.org/Graphics/SVG/1.1/DTD/svg11.dtd">
<svg version="1.1" id="Layer_1" xmlns="http://www.w3.org/2000/svg" xmlns:xlink="http://www.w3.org/1999/xlink" x="0px" y="0px"
	 width="21.349px" height="21.35px" viewBox="0 0 21.349 21.35" enable-background="new 0 0 21.349 21.35" xml:space="preserve">
<path d="M0,9.445c0.229-0.377,0.56-0.512,1-0.492C1.615,8.98,2.231,8.961,2.847,8.961c0.491,0.001,0.822-0.235,1.028-0.677
	c0.601-1.296,0.586-1.391-0.432-2.416c-0.317-0.32-0.641-0.636-0.955-0.96C2.122,4.531,2.11,4.167,2.47,3.794
	C2.907,3.341,3.351,2.895,3.805,2.46C4.163,2.118,4.533,2.127,4.89,2.476c0.49,0.478,0.974,0.962,1.454,1.449
	c0.37,0.376,0.793,0.453,1.275,0.257C7.822,4.1,8.024,4.014,8.226,3.932c0.5-0.202,0.746-0.566,0.737-1.112
	C8.954,2.164,8.955,1.507,8.96,0.85c0.006-0.581,0.277-0.843,0.863-0.846C10.413,0,11-0.002,11.589,0.005
	c0.508,0.005,0.789,0.274,0.798,0.785c0.013,0.683,0.009,1.368-0.001,2.052c-0.007,0.53,0.238,0.882,0.717,1.083
	c0.202,0.085,0.405,0.166,0.606,0.251c0.497,0.21,0.93,0.128,1.31-0.262c0.439-0.451,0.889-0.892,1.335-1.336
	c0.489-0.486,0.809-0.49,1.29-0.015c0.39,0.384,0.777,0.771,1.161,1.161c0.442,0.449,0.444,0.789,0.007,1.232
	c-0.462,0.467-0.925,0.932-1.391,1.395c-0.362,0.36-0.44,0.772-0.247,1.24c0.088,0.214,0.184,0.427,0.272,0.641
	c0.206,0.498,0.57,0.743,1.115,0.735c0.644-0.011,1.286-0.009,1.93-0.003c0.592,0.004,0.852,0.267,0.855,0.853
	c0.003,0.575,0.003,1.149,0,1.724c-0.004,0.582-0.267,0.842-0.861,0.848c-0.588,0.006-1.177,0-1.765,0
	c-0.748,0-0.998,0.164-1.287,0.842c-0.046,0.109-0.099,0.216-0.212,0.463c-0.336-0.379-0.641-0.691-0.9-1.037
	c-0.074-0.1-0.047-0.304-0.014-0.449c0.519-2.294-0.039-4.284-1.804-5.84c-1.767-1.558-3.829-1.877-6.017-1.027
	c-2.84,1.103-4.297,4.295-3.346,7.196c0.944,2.884,3.985,4.578,6.917,3.828c0.387-0.099,0.631-0.044,0.88,0.254
	c0.191,0.228,0.439,0.407,0.653,0.599c-0.064,0.088-0.076,0.121-0.096,0.127c-0.932,0.262-1.225,0.901-1.118,1.814
	c0.046,0.391-0.01,0.794,0.016,1.189c0.029,0.438-0.112,0.771-0.488,1.002H9.442c-0.376-0.229-0.521-0.561-0.49-1
	c0.025-0.353,0.008-0.709,0.008-1.064c0-1.468-0.022-1.492-1.372-2.041c-0.499-0.201-0.928-0.141-1.311,0.249
	c-0.459,0.468-0.923,0.933-1.394,1.388c-0.358,0.348-0.724,0.353-1.084,0.008c-0.453-0.437-0.897-0.881-1.333-1.334
	c-0.346-0.359-0.343-0.728-0.003-1.084c0.312-0.326,0.637-0.641,0.955-0.959c1.015-1.021,1.018-1.061,0.453-2.383
	c-0.211-0.496-0.56-0.752-1.105-0.744c-0.588,0.01-1.177-0.016-1.763,0.013C0.562,12.418,0.23,12.284,0,11.908V9.445z"/>
<path d="M6.666,9.817c0.61,0.574,1.169,1.118,1.749,1.636c0.913,0.816,2.088,0.777,2.949-0.076c0.875-0.868,0.928-2.015,0.11-2.939
	c-0.316-0.358-0.667-0.687-1.02-1.01c-0.222-0.203-0.477-0.369-0.671-0.616c0.82-0.361,1.576-0.357,2.331-0.117
	c2.265,0.723,3.494,3.049,2.79,5.33c-0.151,0.493-0.068,0.81,0.3,1.157c1.432,1.352,2.839,2.73,4.255,4.1
	c0.089,0.085,0.177,0.172,0.261,0.262c0.636,0.683,0.651,1.42,0.044,2.037c-0.626,0.635-1.384,0.645-2.063-0.006
	c-1.217-1.164-2.42-2.34-3.627-3.511c-0.294-0.286-0.602-0.562-0.871-0.87c-0.332-0.378-0.688-0.447-1.171-0.3
	c-2.204,0.67-4.438-0.421-5.257-2.539c-0.289-0.746-0.342-1.517-0.21-2.301C6.582,9.959,6.642,9.872,6.666,9.817 M19.297,18.484
	c-0.009-0.374-0.31-0.664-0.685-0.661c-0.372,0.002-0.674,0.305-0.675,0.674c-0.001,0.383,0.331,0.704,0.708,0.688
	C19.015,19.168,19.306,18.855,19.297,18.484"/>
<path fill="#FFFFFF" d="M19.297,18.484c0.009,0.371-0.282,0.685-0.651,0.7c-0.377,0.017-0.709-0.305-0.708-0.688
	c0.001-0.369,0.303-0.672,0.675-0.674C18.988,17.82,19.289,18.11,19.297,18.484"/>
</svg>
