<?xml version="1.0" encoding="utf-8"?>
<!-- Generator: Adobe Illustrator 16.0.0, SVG Export Plug-In . SVG Version: 6.00 Build 0)  -->
<!DOCTYPE svg PUBLIC "-//W3C//DTD SVG 1.1//EN" "http://www.w3.org/Graphics/SVG/1.1/DTD/svg11.dtd">
<svg version="1.1" id="Layer_1" xmlns="http://www.w3.org/2000/svg" xmlns:xlink="http://www.w3.org/1999/xlink" x="0px" y="0px"
	 width="23.791px" height="21.847px" viewBox="0 0 23.791 21.847" enable-background="new 0 0 23.791 21.847" xml:space="preserve">
<path d="M11.885,21.847c3.278-1.656,5.854-4.593,8.052-6.928c1.557-1.655,2.95-3.872,3.538-6.489
	c0.362-1.61,1.126-5.359-2.665-7.481c-2.277-1.274-4.607-1.289-6.869,0.125l-2.044,1.675h0.001L9.854,1.073
	c-2.261-1.415-4.593-1.402-6.87-0.129c-3.792,2.12-3.03,5.869-2.669,7.48c0.586,2.616,1.978,4.834,3.534,6.489
	c2.195,2.337,4.77,5.275,8.048,6.934H11.885z"/>
<rect x="5.473" y="8.305" fill="#FFFFFF" width="12.581" height="4.36"/>
<rect x="9.583" y="4.196" fill="#FFFFFF" width="4.361" height="12.58"/>
</svg>
