<?xml version="1.0" encoding="utf-8"?>
<!-- Generator: Adobe Illustrator 16.0.0, SVG Export Plug-In . SVG Version: 6.00 Build 0)  -->
<!DOCTYPE svg PUBLIC "-//W3C//DTD SVG 1.1//EN" "http://www.w3.org/Graphics/SVG/1.1/DTD/svg11.dtd">
<svg version="1.1" id="Layer_1" xmlns="http://www.w3.org/2000/svg" xmlns:xlink="http://www.w3.org/1999/xlink" x="0px" y="0px"
	 width="13.264px" height="13.265px" viewBox="0 0 13.264 13.265" enable-background="new 0 0 13.264 13.265" xml:space="preserve">
<path fill="#FFFFFF" d="M7.299,3.401C7.245,2.948,7.028,2.613,6.513,2.599C6.011,2.585,5.707,2.86,5.687,3.363
	s0.261,0.806,0.763,0.828C6.958,4.215,7.219,3.916,7.299,3.401"/>
<path d="M7.299,3.401c-0.08,0.515-0.341,0.813-0.85,0.79C5.947,4.169,5.667,3.866,5.687,3.363s0.325-0.778,0.827-0.765
	C7.028,2.613,7.245,2.948,7.299,3.401"/>
<path fill="#231F20" d="M7.733,10.547h-2.08c-0.341,0-0.537-0.174-0.537-0.477c0-0.296,0.175-0.466,0.479-0.466l0.632-0.003V6.599
	C6.216,6.457,6.219,6.341,6.222,6.256c0.001-0.024,0.002-0.05,0.002-0.071l-0.61-0.011c-0.315,0-0.497-0.166-0.497-0.456
	c0-0.144,0.056-0.476,0.576-0.476h1.17c0.266,0,0.4,0.174,0.4,0.516L7.258,6.629C7.253,6.904,7.25,7.184,7.25,7.469l0.001,2.136
	h0.544c0.328,0,0.517,0.17,0.517,0.466c0,0.135-0.062,0.255-0.179,0.347C8.024,10.503,7.892,10.547,7.733,10.547"/>
<path fill="#231F20" d="M6.632,13.265C2.975,13.265,0,10.289,0,6.632C0,2.976,2.975,0,6.632,0s6.632,2.976,6.632,6.632
	C13.264,10.289,10.289,13.265,6.632,13.265 M6.632,1.089c-3.057,0-5.543,2.486-5.543,5.543c0,3.058,2.486,5.544,5.543,5.544
	c3.057,0,5.544-2.486,5.544-5.544C12.176,3.575,9.688,1.089,6.632,1.089"/>
</svg>
