<?xml version="1.0" encoding="utf-8"?>
<!-- Generator: Adobe Illustrator 16.0.0, SVG Export Plug-In . SVG Version: 6.00 Build 0)  -->
<!DOCTYPE svg PUBLIC "-//W3C//DTD SVG 1.1//EN" "http://www.w3.org/Graphics/SVG/1.1/DTD/svg11.dtd">
<svg version="1.1" id="Layer_1" xmlns="http://www.w3.org/2000/svg" xmlns:xlink="http://www.w3.org/1999/xlink" x="0px" y="0px"
	 width="30.585px" height="26.506px" viewBox="0 0 30.585 26.506" enable-background="new 0 0 30.585 26.506" xml:space="preserve">
<rect x="8.962" y="13.044" fill="#231F20" width="12.581" height="4.36"/>
<rect x="13.072" y="8.934" fill="#231F20" width="4.361" height="12.581"/>
<path d="M0,10.84C1.78,9.637,11.318,2.158,13.847,0.415c0.809-0.558,2.052-0.546,2.84-0.011c4.302,2.923,9.691,7.354,13.898,10.436
	H27.87v15.666H2.699V10.84H0z M26.071,24.775v-0.277c0-4.911-0.001-9.824,0.005-14.735c0-0.197-0.066-0.309-0.222-0.42
	c-3.455-2.496-6.908-4.996-10.356-7.502c-0.17-0.124-0.277-0.121-0.446,0.001C11.604,4.348,8.151,6.848,4.696,9.344
	c-0.157,0.112-0.22,0.226-0.22,0.421c0.006,4.901,0.005,9.803,0.006,14.705c0,0.098,0.01,0.195,0.016,0.306H26.071z"/>
</svg>
