<?xml version="1.0" encoding="UTF-8"?>
<svg width="828px" height="757px" viewBox="0 0 828 757" version="1.1" xmlns="http://www.w3.org/2000/svg" xmlns:xlink="http://www.w3.org/1999/xlink">
    <!-- Generator: Sketch 63.1 (92452) - https://sketch.com -->
    <title>germs (1)</title>
    <desc>Created with Sketch.</desc>
    <g id="Page-1" stroke="none" stroke-width="1" fill="none" fill-rule="evenodd">
        <g id="germs-(1)">
            <path d="M171,0 C76.7104848,0 0,76.7104848 0,171 C0,265.289515 76.7104848,342 171,342 C265.289515,342 342,265.289515 342,171 C342,76.7104848 265.289515,0 171,0 Z M171,318.734788 C89.5383636,318.734788 23.2652121,252.461636 23.2652121,171 C23.2652121,89.5383636 89.5383636,23.2652121 171,23.2652121 C252.461636,23.2652121 318.734788,89.5383636 318.734788,171 C318.734788,252.461636 252.461636,318.734788 171,318.734788 Z" id="Shape" fill="#000000" fill-rule="nonzero"></path>
            <path d="M117.389602,92 C119.419135,92 121.475698,91.4359784 123.332912,90.250598 C130.073619,85.9490597 135.1238,84.0744503 135.308508,84.0077507 C141.233798,81.8979374 144.406491,75.2045754 142.396105,69.0354486 C140.38234,62.8511097 133.926578,59.5325127 127.972006,61.6282839 C127.227543,61.8892314 120.440659,64.3500952 111.424893,70.1038122 C106.07062,73.5207033 104.395861,80.8003197 107.683434,86.3632993 C109.831225,89.9990119 113.5648,92.0011697 117.389602,92 Z" id="Path" fill="#000000" fill-rule="nonzero"></path>
            <path d="M101.948591,91.81163 C97.0241112,87.6728669 89.5448085,88.1600456 85.2437992,92.8987601 C77.2300931,101.728873 71.0117946,111.719419 66.7611787,122.594103 C64.4594941,128.4831 67.5534082,135.052118 73.6732639,137.266977 C75.0456023,137.764305 76.4542707,138 77.8383284,138 C82.6268636,138 87.1364777,135.182935 88.9213379,130.614507 C92.1711196,122.302021 96.935044,114.653768 103.077167,107.885142 C107.379348,103.146428 106.873071,95.9492653 101.948591,91.81163 Z" id="Path" fill="#000000" fill-rule="nonzero"></path>
            <path d="M85.7592742,156.432564 C86.1128242,149.944327 81.3466126,144.385644 75.1147349,144.01755 C68.9052338,143.666929 63.544924,148.611734 63.1902552,155.099971 C62.8725077,160.941714 62.9530634,167.022252 63.4296846,173.178506 C63.9063058,179.33476 68.8537677,184 74.6839857,184 C74.9883072,184 75.297104,183.986022 75.6059008,183.960395 C81.827709,183.437376 86.4641365,177.762207 85.9629011,171.284453 C85.5668356,166.199865 85.4985871,161.202642 85.7592742,156.432564 Z" id="Path" fill="#000000" fill-rule="nonzero"></path>
            <path d="M150.741792,264.553697 C142.792931,262.619996 137.849429,260.403694 137.657847,260.316912 C130.909014,257.191615 122.749767,259.817354 119.416487,266.200347 C116.07498,272.600029 118.84762,280.352635 125.607031,283.514647 C126.342797,283.859554 133.111611,286.955923 143.94477,289.58945 C145.084855,289.8676 146.22729,290 147.352096,290 C153.435684,290 158.983314,286.123697 160.566504,280.288104 C162.444706,273.3744 158.045388,266.329409 150.741792,264.553697 Z" id="Path" fill="#000000" fill-rule="nonzero"></path>
            <path d="M205.223907,259.872862 C198.479135,262.300534 191.381308,263.936076 184.12591,264.738026 C176.577879,265.571618 171.193198,271.882474 172.09953,278.832708 C172.937147,285.271222 178.87866,290 185.74783,290 C186.295184,290 186.847277,289.96945 187.404108,289.908349 C196.966212,288.852175 206.331647,286.691819 215.240954,283.486201 C222.32101,280.938509 225.818387,273.587846 223.053184,267.0675 C220.287982,260.547155 212.302778,257.324079 205.223907,259.872862 Z" id="Path" fill="#000000" fill-rule="nonzero"></path>
            <path d="M262.415297,230.061884 C256.93986,225.463781 248.722224,226.118757 244.063733,231.526728 C240.904655,235.194367 237.587567,238.614179 234.20212,241.689907 C228.911589,246.497115 228.570916,254.62788 233.440087,259.851086 C236.007468,262.604859 239.50834,264 243.021539,264 C246.173894,264 249.334092,262.877027 251.835355,260.603422 C255.996283,256.822932 260.055233,252.641933 263.899021,248.181021 C268.556391,242.77305 267.891853,234.661094 262.415297,230.061884 Z" id="Path" fill="#000000" fill-rule="nonzero"></path>
            <path d="M121.7237,215.872308 C127.126116,207.700195 132.88074,201.355205 139.313902,196.473088 C144.39224,192.620268 145.518634,185.19663 141.827753,179.893863 C138.137996,174.588746 131.027423,173.414923 125.95021,177.268917 C117.403793,183.753732 109.901626,191.968144 103.013856,202.384504 C99.446754,207.77892 100.744189,215.172009 105.910298,218.896753 C107.881769,220.317326 110.132306,221 112.359213,221 C115.96795,220.998825 119.518173,219.208128 121.7237,215.872308 Z" id="Path" fill="#000000" fill-rule="nonzero"></path>
            <path d="M185.404844,183.155825 C188.595398,182.766181 191.893293,182.363469 195.110111,181.881165 C201.415851,180.935565 205.789444,174.850935 204.880468,168.289941 C203.970349,161.730135 198.136227,157.173196 191.815642,158.125924 C188.901435,158.563086 185.895874,158.93016 182.713314,159.318616 C175.06238,160.253525 167.152228,161.219321 158.804717,163.338606 C152.615454,164.909063 148.820819,171.401157 150.331593,177.840981 C151.617407,183.324513 156.33358,187 161.529363,187 C162.433772,187 163.354168,186.888334 164.27228,186.655497 C171.247191,184.885466 178.44592,184.007579 185.404844,183.155825 Z" id="Path" fill="#000000" fill-rule="nonzero"></path>
            <path d="M229.542277,104.754883 C230.383612,110.705795 235.425788,115 241.196109,115 C241.75272,115 242.316333,114.959823 242.883447,114.877106 C249.328236,113.942401 253.803298,107.894592 252.879113,101.367023 C249.907019,80.362761 239.861175,65.6899105 239.435257,65.0754398 C235.693008,59.682278 228.343871,58.3800728 223.012304,62.1708842 C217.685405,65.9605139 216.400648,73.4062441 220.144063,78.8017692 C220.216411,78.9045749 227.396348,89.5916378 229.542277,104.754883 Z" id="Path" fill="#000000" fill-rule="nonzero"></path>
            <path d="M239.341966,158.005017 C243.739219,151.61671 247.134365,144.839873 249.432181,137.865401 C251.393317,131.90942 248.111532,125.505393 242.097759,123.561614 C236.08512,121.621204 229.621306,124.869819 227.657903,130.826923 C226.032314,135.76329 223.595064,140.607578 220.415303,145.227281 C218.614005,147.845937 216.638132,149.976121 214.374324,151.739109 C209.402334,155.610946 208.540794,162.742627 212.449463,167.667765 C214.708737,170.514374 218.066474,172 221.459353,172 C223.935145,172 226.431343,171.20834 228.529645,169.573364 C232.607221,166.399985 236.244958,162.506813 239.341966,158.005017 Z" id="Path" fill="#000000" fill-rule="nonzero"></path>
            <path d="M203.489183,235.510817 C205.067308,237.088942 207.264423,238 209.5,238 C211.734375,238 213.919471,237.088942 215.509615,235.510817 C217.088942,233.919471 218,231.734375 218,229.5 C218,227.265625 217.088942,225.067308 215.509615,223.489183 C213.93149,221.911058 211.734375,221 209.5,221 C207.253606,221 205.067308,221.911058 203.489183,223.489183 C201.911058,225.067308 201,227.253606 201,229.5 C201,231.734375 201.911058,233.919471 203.489183,235.510817 Z" id="Path" fill="#000000" fill-rule="nonzero"></path>
            <path d="M243.489183,183.489183 C241.911058,185.06851 241,187.265625 241,189.5 C241,191.746394 241.911058,193.932692 243.489183,195.510817 C245.080529,197.100962 247.265625,198 249.5,198 C251.734375,198 253.932692,197.100962 255.510817,195.510817 C257.100962,193.932692 258,191.734375 258,189.5 C258,187.265625 257.100962,185.06851 255.510817,183.489183 C253.932692,181.911058 251.747596,181 249.5,181 C247.265625,181 245.080529,181.911058 243.489183,183.489183 Z" id="Path" fill="#000000" fill-rule="nonzero"></path>
            <path d="M293.510817,166.489183 C291.919471,164.911058 289.734375,164 287.5,164 C285.265625,164 283.06851,164.911058 281.489183,166.489183 C279.911058,168.067308 279,170.265625 279,172.5 C279,174.734375 279.911058,176.93149 281.489183,178.510817 C283.06851,180.088942 285.265625,181 287.5,181 C289.734375,181 291.919471,180.088942 293.510817,178.510817 C295.088942,176.93149 296,174.734375 296,172.5 C296,170.265625 295.088942,168.067308 293.510817,166.489183 Z" id="Path" fill="#000000" fill-rule="nonzero"></path>
            <path d="M267.5,124 C265.253606,124 263.067308,124.911058 261.489183,126.501202 C259.899038,128.080529 259,130.265625 259,132.5 C259,134.745192 259.899038,136.932692 261.489183,138.510817 C263.067308,140.100962 265.252404,141 267.5,141 C269.734375,141 271.919471,140.100962 273.510817,138.510817 C275.088942,136.932692 276,134.746394 276,132.5 C276,130.265625 275.088942,128.080529 273.510817,126.501202 C271.919471,124.911058 269.734375,124 267.5,124 Z" id="Path" fill="#000000" fill-rule="nonzero"></path>
            <path d="M169.5,101 C171.745192,101 173.93149,100.088942 175.510817,98.5108173 C177.100962,96.9206731 178,94.734375 178,92.5 C178,90.265625 177.100962,88.0805288 175.510817,86.4891827 C173.93149,84.9110577 171.746394,84 169.5,84 C167.265625,84 165.079327,84.9110577 163.489183,86.4891827 C161.911058,88.0685096 161,90.265625 161,92.5 C161,94.734375 161.911058,96.9206731 163.489183,98.5108173 C165.079327,100.088942 167.265625,101 169.5,101 Z" id="Path" fill="#000000" fill-rule="nonzero"></path>
            <path d="M189.506014,63 C191.74197,63 193.929815,62.0896503 195.509056,60.4995408 C197.100325,58.9226422 198,56.7392441 198,54.4933946 C198,52.2607559 197.100325,50.0653479 195.509056,48.4884493 C193.929815,46.9103497 191.74197,46 189.506014,46 C187.259233,46 185.071388,46.9103497 183.490944,48.4884493 C181.899675,50.0773578 181,52.2607559 181,54.4933946 C181,56.7380431 181.899675,58.9226422 183.490944,60.4995408 C185.071388,62.0908513 187.25803,63 189.506014,63 Z" id="Path" fill="#000000" fill-rule="nonzero"></path>
            <path d="M126.489183,126.477163 C124.911058,128.06851 124,130.253606 124,132.487981 C124,134.733173 124.911058,136.920673 126.489183,138.498798 C128.067308,140.088942 130.265625,141 132.5,141 C134.734375,141 136.919471,140.088942 138.510817,138.498798 C140.088942,136.920673 141,134.734375 141,132.487981 C141,130.253606 140.088942,128.06851 138.510817,126.477163 C136.919471,124.899038 134.734375,124 132.5,124 C130.265625,124 128.067308,124.899038 126.489183,126.477163 Z" id="Path" fill="#000000" fill-rule="nonzero"></path>
            <path d="M189.506014,141 C191.74197,141 193.929815,140.089586 195.509056,138.500565 C197.100325,136.923555 198,134.738802 198,132.506005 C198,130.262399 197.100325,128.077646 195.509056,126.487424 C193.929815,124.910414 191.74197,124 189.506014,124 C187.259233,124 185.071388,124.910414 183.490944,126.487424 C181.899675,128.077646 181,130.261198 181,132.506005 C181,134.738802 181.899675,136.923555 183.490944,138.500565 C185.071388,140.089586 187.25803,141 189.506014,141 Z" id="Path" fill="#000000" fill-rule="nonzero"></path>
            <path d="M74.5,221 C72.2536058,221 70.0673077,221.911058 68.4891827,223.489183 C66.9110577,225.067308 66,227.265625 66,229.5 C66,231.734375 66.9110577,233.919471 68.4891827,235.510817 C70.0673077,237.088942 72.265625,238 74.5,238 C76.734375,238 78.9194712,237.088942 80.5108173,235.510817 C82.0889423,233.919471 83,231.734375 83,229.5 C83,227.265625 82.0889423,225.067308 80.5108173,223.489183 C78.9302885,221.911058 76.7331731,221 74.5,221 Z" id="Path" fill="#000000" fill-rule="nonzero"></path>
            <path d="M178,209.493395 C178,207.260756 177.100962,205.077358 175.510817,203.500459 C173.93149,201.91035 171.746394,201 169.5,201 C167.265625,201 165.079327,201.91035 163.489183,203.500459 C161.911058,205.077358 161,207.260756 161,209.493395 C161,211.738043 161.911058,213.922642 163.489183,215.499541 C165.079327,217.08965 167.265625,218 169.5,218 C171.745192,218 173.93149,217.08965 175.510817,215.499541 C177.102163,213.921441 178,211.726033 178,209.493395 Z" id="Path" fill="#000000" fill-rule="nonzero"></path>
            <path d="M448.103,487.032515 C460.155,491.053515 473.16,484.023515 477.002,471.408515 C480.844,458.794515 474.127,445.183515 462.075,441.162515 L342.283,401.191515 C330.23,397.170515 317.226,404.200515 313.384,416.814515 C309.541,429.429515 316.259,443.040515 328.311,447.061515 L448.103,487.032515 Z" id="Fill-1" fill="#1B1A19"></path>
            <path d="M804.262,475.320515 C804.262,322.344515 685.954,197.891515 540.534,197.891515 C538.527,197.891515 536.531,197.944515 534.534,197.992515 L553.294,136.402515 C562.771,105.287515 546.202,71.7145147 516.473,61.7945147 C486.744,51.8745147 454.666,69.2165147 445.189,100.331515 L357.166,389.313515 L465.271,425.384515 L515.393,260.831515 C523.635,259.765515 532.023,259.201515 540.534,259.201515 C653.638,259.201515 745.656,356.151515 745.656,475.320515 C745.656,573.189515 683.581,656.047515 598.744,682.548515 L556.32,682.548515 C553.026,671.427515 543.086,663.290515 531.415,663.290515 L249.284,663.290515 C237.613,663.290515 227.672,671.427515 224.378,682.548515 L207,682.548515 L207,756.370515 L827.345,756.370515 L827.345,682.548515 L715.621,682.548515 C769.951,631.695515 804.262,557.659515 804.262,475.320515 Z" id="Fill-2" fill="#1B1A19"></path>
        </g>
    </g>
</svg>