<?xml version="1.0" encoding="utf-8"?>
<!-- Generator: Adobe Illustrator 16.0.0, SVG Export Plug-In . SVG Version: 6.00 Build 0)  -->
<!DOCTYPE svg PUBLIC "-//W3C//DTD SVG 1.1//EN" "http://www.w3.org/Graphics/SVG/1.1/DTD/svg11.dtd">
<svg version="1.1" id="Layer_1" xmlns="http://www.w3.org/2000/svg" xmlns:xlink="http://www.w3.org/1999/xlink" x="0px" y="0px"
	 width="29.5px" height="21px" viewBox="0 0 29.5 21" enable-background="new 0 0 29.5 21" xml:space="preserve">
<path fill="#007AFF" d="M0,18.375c0-2.338,3.825-4.25,8.5-4.25s8.5,1.912,8.5,4.25V20.5H0"/>
<path fill="#007AFF" d="M4.25,7.75c0-2.347,1.902-4.25,4.25-4.25c2.347,0,4.25,1.903,4.25,4.25S10.847,12,8.5,12
	C6.152,12,4.25,10.097,4.25,7.75"/>
<polyline fill="none" points="0,19.501 17,19.501 17,3.501 0,3.501 0,19.501 "/>
<path fill="#007AFF" d="M9,20.5V18c0-2.75,4.5-5,10-5c5.5,0,10,2.25,10,5v2.5H9z"/>
<path fill="#007AFF" d="M19,0.5c2.76,0,5,2.238,5,5c0,2.761-2.24,5-5,5c-2.763,0-5-2.239-5-5"/>
<path fill="#007AFF" d="M14,5.5c0-2.762,2.238-5,5-5"/>
<path fill="none" stroke="#FDFDFD" d="M9,20.5V18c0-2.75,4.5-5,10-5c5.5,0,10,2.25,10,5v2.5H9z"/>
<path fill="none" stroke="#FDFDFD" d="M19,0.5c2.76,0,5,2.238,5,5c0,2.761-2.24,5-5,5c-2.763,0-5-2.239-5-5
	C14,2.738,16.238,0.5,19,0.5"/>
</svg>
