<?xml version="1.0" encoding="utf-8"?>
<!-- Generator: Adobe Illustrator 16.0.0, SVG Export Plug-In . SVG Version: 6.00 Build 0)  -->
<!DOCTYPE svg PUBLIC "-//W3C//DTD SVG 1.1//EN" "http://www.w3.org/Graphics/SVG/1.1/DTD/svg11.dtd">
<svg version="1.1" id="Layer_1" xmlns="http://www.w3.org/2000/svg" xmlns:xlink="http://www.w3.org/1999/xlink" x="0px" y="0px"
	 width="25.509px" height="20.328px" viewBox="0 0 25.509 20.328" enable-background="new 0 0 25.509 20.328" xml:space="preserve">
<path d="M25.509,9.633c-0.069,0.203-0.133,0.408-0.209,0.609c-0.681,1.813-2.503,3.187-4.791,3.039
	c-1.898-0.121-3.657-1.58-4.162-3.493c-0.046-0.172-0.023-0.31,0.071-0.466c1.146-1.903,2.283-3.811,3.423-5.717
	c0.067-0.112,0.133-0.225,0.225-0.381h-0.337c-1.621,0-3.243,0.001-4.865,0.001c-0.35-0.001-0.659,0.31-0.659,0.667
	c-0.001,1.641-0.001,3.282-0.001,4.924v8.449v0.33h0.313c1.389-0.002,2.777-0.012,4.166,0.007c0.281,0.004,0.571,0.087,0.839,0.185
	c0.235,0.086,0.343,0.295,0.336,0.561c-0.01,0.408-0.014,0.816-0.006,1.224c0.006,0.288-0.121,0.494-0.373,0.591
	c-0.221,0.086-0.463,0.158-0.696,0.158c-3.934,0.01-7.866,0.008-11.8,0.003c-0.188,0-0.382-0.04-0.561-0.099
	c-0.393-0.131-0.512-0.311-0.513-0.723c-0.001-0.373,0.011-0.75-0.004-1.123c-0.012-0.322,0.134-0.539,0.418-0.637
	c0.231-0.08,0.482-0.139,0.726-0.141c1.272-0.014,2.545-0.006,3.817-0.006h0.374c0.005-0.104,0.013-0.191,0.013-0.279
	c0.001-4.475,0.001-8.948,0-13.423c0-0.366-0.296-0.669-0.652-0.669H5.71H5.407c0.07,0.125,0.117,0.211,0.167,0.294
	C6.73,5.454,7.885,7.39,9.048,9.321c0.094,0.155,0.117,0.293,0.07,0.466c-0.555,2.058-2.388,3.483-4.511,3.5
	c-2.138,0.016-3.992-1.384-4.576-3.446C-0.024,9.646-0.011,9.49,0.103,9.309C1.367,7.292,2.62,5.27,3.875,3.249
	c0.044-0.071,0.086-0.142,0.142-0.232c-0.356-0.28-0.456-0.657-0.42-1.088c0.041-0.481,0.397-0.888,0.879-0.944
	C4.78,0.949,5.09,0.958,5.397,0.958c1.764-0.002,3.526-0.003,5.289,0.003c0.181,0,0.3-0.047,0.42-0.194
	c0.835-1.02,2.407-1.023,3.251-0.004c0.129,0.157,0.257,0.198,0.443,0.197c1.938-0.004,3.875,0.003,5.813-0.006
	c0.527-0.002,0.976,0.137,1.175,0.658c0.19,0.5,0.131,0.984-0.295,1.37c-0.012,0.011-0.015,0.029-0.029,0.06
	c0.539,0.867,1.082,1.743,1.628,2.618c0.805,1.292,1.611,2.583,2.418,3.874V9.633z M24.24,9.516
	c-1.146-1.84-2.268-3.643-3.415-5.488c-1.102,1.843-2.18,3.65-3.278,5.488H24.24z M7.922,9.521C6.815,7.669,5.735,5.862,4.636,4.026
	C3.489,5.875,2.366,7.684,1.225,9.521H7.922z"/>
</svg>
