<?xml version="1.0" encoding="utf-8"?>
<!-- Generator: Adobe Illustrator 16.0.0, SVG Export Plug-In . SVG Version: 6.00 Build 0)  -->
<!DOCTYPE svg PUBLIC "-//W3C//DTD SVG 1.1//EN" "http://www.w3.org/Graphics/SVG/1.1/DTD/svg11.dtd">
<svg version="1.1" id="Layer_1" xmlns="http://www.w3.org/2000/svg" xmlns:xlink="http://www.w3.org/1999/xlink" x="0px" y="0px"
	 width="27.614px" height="26.488px" viewBox="0 0 27.614 26.488" enable-background="new 0 0 27.614 26.488" xml:space="preserve">
<path fill="#FFFFFF" d="M21.41,16.786c0.159,0.226,0.295,0.436,0.448,0.629c0.907,1.15,2.543,1.513,3.895,0.869
	c1.349-0.643,2.104-2.149,1.791-3.574c-0.369-1.674-1.83-2.745-3.541-2.594c-1.562,0.137-2.797,1.473-2.896,3.118
	c-0.006,0.096-0.083,0.227-0.165,0.272c-1.251,0.674-2.261,1.626-3.01,2.812c-0.813,1.287-1.51,2.646-2.279,3.961
	c-0.387,0.66-0.745,1.361-1.249,1.926c-1.021,1.143-2.768,1.414-3.868-0.068c-0.5-0.674-0.792-1.447-0.854-2.266
	c-0.093-1.223-0.096-2.451-0.122-3.676c-0.002-0.08,0.104-0.205,0.188-0.236c0.461-0.168,0.852-0.433,1.181-0.793
	c0.605-0.662,1.218-1.32,1.811-1.996c1.16-1.319,2.245-2.698,3.215-4.167c0.163-0.247,0.271-0.511,0.174-0.787
	c-0.079-0.224-0.009-0.376,0.091-0.552c0.717-1.251,1.335-2.544,1.507-3.998c0.186-1.568-0.269-2.885-1.624-3.794
	c-0.914-0.613-1.962-0.856-3.033-1.021c-0.096-0.014-0.229-0.059-0.267-0.13c-0.424-0.8-1.775-0.928-2.501-0.403
	c-0.635,0.46-0.614,1.197,0.044,1.629c0.696,0.457,1.69,0.364,2.299-0.202c0.074-0.069,0.216-0.129,0.307-0.108
	c0.64,0.144,1.294,0.257,1.905,0.481c0.998,0.365,1.808,0.993,2.019,2.099c0.104,0.545,0.093,1.136,0.007,1.686
	c-0.198,1.268-0.788,2.394-1.426,3.492c-0.036,0.062-0.106,0.142-0.166,0.146c-0.442,0.036-0.67,0.333-0.894,0.669
	c-1.405,2.109-3.059,4.015-4.802,5.846c-0.415,0.437-1.016,0.428-1.432-0.011c-1.786-1.887-3.488-3.842-4.913-6.023
	C3.078,9.76,2.854,9.61,2.555,9.548C2.469,9.531,2.364,9.475,2.323,9.405C1.638,8.23,1.023,7.02,0.835,5.652
	c-0.192-1.408,0.157-2.565,1.628-3.34c0.751-0.396,1.568-0.569,2.399-0.681c0.092-0.012,0.22,0.066,0.296,0.139
	c0.618,0.599,1.813,0.622,2.44,0.038c0.397-0.369,0.444-0.852,0.122-1.254C7.084-0.239,5.556-0.165,4.992,0.678
	C4.937,0.76,4.819,0.824,4.719,0.847C4.235,0.958,3.738,1.024,3.26,1.159C2.315,1.426,1.45,1.848,0.815,2.632
	c-0.855,1.054-0.942,2.271-0.691,3.543c0.252,1.277,0.814,2.43,1.455,3.55c0.06,0.103,0.123,0.254,0.089,0.347
	c-0.134,0.36-0.033,0.655,0.166,0.955c1.481,2.238,3.22,4.268,5.079,6.195c0.288,0.298,0.691,0.492,1.062,0.696
	c0.159,0.088,0.242,0.154,0.239,0.346c-0.012,0.689-0.005,1.377-0.004,2.066c0.003,0.98,0.089,1.951,0.388,2.893
	c0.323,1.02,0.822,1.932,1.705,2.572c1.531,1.112,3.656,0.86,5.03-0.582c0.619-0.65,1.04-1.432,1.469-2.211
	c0.697-1.264,1.375-2.541,2.125-3.775C19.539,18.221,20.358,17.389,21.41,16.786"/>
<path d="M21.41,16.786c-1.052,0.604-1.871,1.436-2.483,2.442c-0.75,1.233-1.428,2.51-2.125,3.774
	c-0.429,0.778-0.85,1.562-1.469,2.211c-1.374,1.442-3.499,1.694-5.03,0.582c-0.883-0.642-1.382-1.553-1.705-2.572
	c-0.299-0.941-0.385-1.911-0.388-2.893c-0.001-0.688-0.008-1.378,0.004-2.066c0.003-0.192-0.08-0.258-0.239-0.346
	c-0.37-0.203-0.773-0.398-1.062-0.697c-1.859-1.926-3.598-3.956-5.079-6.194c-0.199-0.299-0.3-0.594-0.166-0.955
	c0.034-0.093-0.03-0.244-0.089-0.346C0.938,8.605,0.375,7.452,0.124,6.175c-0.251-1.272-0.164-2.488,0.691-3.543
	c0.635-0.783,1.5-1.206,2.445-1.473c0.479-0.134,0.975-0.201,1.459-0.312c0.1-0.023,0.218-0.087,0.272-0.169
	C5.556-0.165,7.084-0.239,7.72,0.554C8.043,0.956,7.997,1.44,7.599,1.809c-0.628,0.583-1.822,0.56-2.44-0.038
	c-0.076-0.074-0.204-0.152-0.295-0.14c-0.832,0.112-1.649,0.285-2.4,0.681c-1.471,0.776-1.82,1.933-1.628,3.341
	C1.023,7.021,1.637,8.23,2.323,9.405c0.041,0.07,0.146,0.126,0.231,0.144c0.3,0.062,0.523,0.211,0.694,0.472
	c1.425,2.18,3.127,4.135,4.913,6.022c0.416,0.438,1.017,0.446,1.432,0.01c1.743-1.831,3.396-3.736,4.802-5.845
	c0.224-0.336,0.45-0.633,0.894-0.668c0.06-0.005,0.13-0.085,0.166-0.147c0.638-1.097,1.228-2.224,1.426-3.492
	c0.086-0.55,0.097-1.141-0.007-1.686c-0.211-1.106-1.021-1.734-2.019-2.099c-0.611-0.224-1.266-0.337-1.905-0.481
	c-0.091-0.021-0.232,0.039-0.307,0.108c-0.608,0.567-1.603,0.66-2.299,0.202C9.686,1.513,9.666,0.776,10.3,0.317
	c0.726-0.525,2.077-0.397,2.501,0.402c0.038,0.072,0.171,0.116,0.267,0.131c1.071,0.164,2.119,0.407,3.033,1.02
	c1.355,0.909,1.81,2.226,1.624,3.795c-0.172,1.453-0.79,2.746-1.507,3.998c-0.1,0.176-0.17,0.327-0.091,0.552
	c0.098,0.275-0.011,0.539-0.174,0.786c-0.97,1.469-2.055,2.849-3.215,4.169c-0.593,0.674-1.205,1.332-1.811,1.996
	c-0.329,0.358-0.72,0.623-1.181,0.791c-0.083,0.03-0.189,0.155-0.188,0.235c0.026,1.226,0.029,2.455,0.122,3.676
	c0.062,0.82,0.354,1.593,0.854,2.267c1.101,1.482,2.848,1.211,3.869,0.067c0.503-0.563,0.861-1.264,1.248-1.925
	c0.77-1.314,1.467-2.674,2.279-3.961c0.749-1.186,1.759-2.139,3.01-2.813c0.082-0.043,0.159-0.176,0.165-0.271
	c0.099-1.645,1.334-2.98,2.896-3.118c1.711-0.151,3.172,0.92,3.541,2.597c0.313,1.422-0.442,2.93-1.791,3.572
	c-1.352,0.643-2.987,0.281-3.895-0.867C21.705,17.221,21.569,17.01,21.41,16.786 M26.634,15.361c-0.002-1.282-1.02-2.303-2.29-2.297
	c-1.251,0.005-2.276,1.038-2.276,2.292c0.001,1.265,1.03,2.275,2.316,2.273C25.633,17.627,26.635,16.616,26.634,15.361"/>
<path fill="#FFFFFF" d="M26.634,15.362c0.001,1.254-1.001,2.264-2.25,2.268c-1.286,0.002-2.315-1.01-2.316-2.273
	c0-1.255,1.025-2.287,2.276-2.293C25.615,13.058,26.632,14.078,26.634,15.362 M24.337,16.597c0.693,0.005,1.261-0.552,1.264-1.242
	c0.004-0.685-0.572-1.262-1.255-1.259c-0.653,0.003-1.245,0.6-1.244,1.251C23.103,16.017,23.672,16.592,24.337,16.597"/>
<path d="M24.337,16.597c-0.665-0.005-1.234-0.58-1.235-1.25c-0.001-0.651,0.591-1.248,1.244-1.251
	c0.683-0.003,1.259,0.574,1.255,1.259C25.598,16.045,25.031,16.602,24.337,16.597"/>
</svg>
