<?xml version="1.0" encoding="utf-8"?>
<!-- Generator: Adobe Illustrator 16.0.0, SVG Export Plug-In . SVG Version: 6.00 Build 0)  -->
<!DOCTYPE svg PUBLIC "-//W3C//DTD SVG 1.1//EN" "http://www.w3.org/Graphics/SVG/1.1/DTD/svg11.dtd">
<svg version="1.1" id="Layer_1" xmlns="http://www.w3.org/2000/svg" xmlns:xlink="http://www.w3.org/1999/xlink" x="0px" y="0px"
	 width="28.062px" height="28.055px" viewBox="0 0 28.062 28.055" enable-background="new 0 0 28.062 28.055" xml:space="preserve">
<path fill="#007AFF" d="M22.42,7.849c0.219-0.206,0.42-0.42,0.649-0.599c0.101-0.078,0.256-0.103,0.391-0.117
	c0.467-0.053,0.936-0.091,1.424-0.137c3.13,4.375,3.458,11.791-1.629,17.023c-4.951,5.092-13.218,5.411-18.586,0.691
	c-5.522-4.855-6.253-13.026-1.623-18.77c4.551-5.646,12.447-6.543,18.026-2.784c-0.048,0.522-0.085,1.037-0.147,1.549
	c-0.016,0.127-0.093,0.26-0.175,0.364c-0.161,0.207-0.345,0.396-0.512,0.585C15.15,1.901,8.371,3.156,4.822,7.779
	c-3.356,4.373-2.928,10.699,1.026,14.556c4.074,3.974,10.353,4.264,14.738,0.672C24.976,19.413,26.077,12.844,22.42,7.849"/>
<path fill="#007AFF" d="M20.585,9.724c2.104,2.885,2.191,7.656-1.071,10.821c-3.346,3.244-8.492,3.237-11.838,0.017
	c-3.264-3.141-3.451-8.341-0.411-11.734c3.091-3.449,7.983-3.565,11.097-1.341c-0.393,0.386-0.779,0.766-1.166,1.146
	c-0.215,0.211-0.401,0.538-0.653,0.6c-0.226,0.055-0.521-0.184-0.788-0.289c-4.019-1.578-8.342,1.564-8.099,5.889
	c0.168,2.995,2.648,5.457,5.631,5.586c3.06,0.133,5.731-2.043,6.179-5.039c0.188-1.26-0.002-2.463-0.59-3.594
	c-0.097-0.186-0.075-0.288,0.07-0.429C19.494,10.825,20.029,10.28,20.585,9.724"/>
<path fill="#007AFF" d="M13.725,15.163c-0.403-0.009-0.612-0.137-0.74-0.382c-0.124-0.238-0.099-0.477,0.057-0.694
	c0.064-0.091,0.15-0.168,0.23-0.248c2.767-2.767,5.53-5.534,8.3-8.298c0.148-0.148,0.231-0.294,0.239-0.512
	c0.014-0.414,0.022-0.836,0.112-1.237c0.073-0.329,0.201-0.681,0.41-0.938c0.733-0.909,1.511-1.783,2.278-2.665
	c0.073-0.084,0.192-0.127,0.29-0.189c0.045,0.105,0.119,0.209,0.13,0.318c0.062,0.609,0.113,1.22,0.158,1.83
	c0.036,0.505,0.227,0.693,0.74,0.73c0.62,0.046,1.24,0.099,1.859,0.158c0.093,0.01,0.182,0.074,0.272,0.112
	c-0.05,0.094-0.077,0.213-0.15,0.277C27.007,4.213,26.1,4.993,25.188,5.77c-0.287,0.244-0.627,0.37-1.008,0.396
	c-0.432,0.028-0.865,0.061-1.294,0.114c-0.115,0.015-0.236,0.104-0.323,0.19c-2.79,2.783-5.574,5.572-8.365,8.354
	C14.04,14.981,13.831,15.089,13.725,15.163"/>
<path fill="#007AFF" d="M14.575,11.238c-0.087,0.093-0.147,0.162-0.212,0.227c-0.619,0.621-1.241,1.239-1.858,1.861
	c-0.657,0.663-0.667,1.645-0.028,2.278c0.631,0.626,1.603,0.616,2.257-0.03c0.678-0.669,1.35-1.345,2.023-2.018
	c0.013-0.013,0.033-0.018,0.05-0.025c0.377,0.746,0.248,2.48-1.033,3.552c-1.235,1.033-3.04,1.06-4.306,0.048
	c-1.27-1.015-1.64-2.798-0.879-4.238C11.341,11.468,13.001,10.765,14.575,11.238"/>
</svg>
