<?xml version="1.0" encoding="utf-8"?>
<!-- Generator: Adobe Illustrator 16.0.0, SVG Export Plug-In . SVG Version: 6.00 Build 0)  -->
<!DOCTYPE svg PUBLIC "-//W3C//DTD SVG 1.1//EN" "http://www.w3.org/Graphics/SVG/1.1/DTD/svg11.dtd">
<svg version="1.1" id="Layer_1" xmlns="http://www.w3.org/2000/svg" xmlns:xlink="http://www.w3.org/1999/xlink" x="0px" y="0px"
	 width="19.697px" height="13.182px" viewBox="0 0 19.697 13.182" enable-background="new 0 0 19.697 13.182" xml:space="preserve">
<path fill="#FFFFFF" d="M7.875,13.164h11.24c-0.119-1.166-0.23-2.263-0.347-3.402c-1.097,0.263-1.923,0.022-2.534-0.756
	c-0.609-0.776-0.52-1.65-0.152-2.514c-0.389-0.15-0.693-0.27-1.034-0.401c1.819-1.668,2.11-3.44,0.877-4.946
	c-1.05-1.279-3.05-1.527-4.37-0.534c-0.73,0.55-1.173,1.283-1.287,2.191c-0.177,1.42,0.499,2.462,1.648,3.307
	C8.857,6.861,7.85,8.957,7.875,13.164 M4.263,6.128C0.644,7.142,0.186,10.04,0,13.182h7.198c0.159-1.146,0.195-2.307,0.504-3.391
	S8.593,7.7,9.062,6.643C8.733,6.505,8.269,6.311,7.621,6.04C8.572,5.291,9.164,4.494,9.207,3.4C9.25,2.305,8.869,1.405,8.025,0.707
	C6.814-0.296,4.939-0.221,3.799,0.872C2.354,2.256,2.457,3.625,4.263,6.128 M17.974,6.046c-0.938,0.014-1.646,0.725-1.642,1.652
	c0.004,0.917,0.74,1.652,1.656,1.656c0.92,0.005,1.738-0.816,1.709-1.708C19.666,6.758,18.886,6.033,17.974,6.046"/>
<path d="M7.876,13.164C7.85,8.957,8.858,6.861,11.917,6.107c-1.149-0.844-1.826-1.886-1.649-3.306
	c0.113-0.909,0.556-1.642,1.287-2.191c1.32-0.993,3.32-0.745,4.369,0.533c1.234,1.506,0.941,3.279-0.877,4.947
	c0.341,0.132,0.645,0.251,1.035,0.401c-0.367,0.863-0.456,1.737,0.152,2.514c0.61,0.778,1.438,1.018,2.535,0.756
	c0.115,1.14,0.227,2.236,0.346,3.402H7.876z"/>
<path d="M4.262,6.128C2.456,3.625,2.353,2.256,3.799,0.872c1.14-1.093,3.016-1.168,4.226-0.165c0.843,0.698,1.224,1.598,1.181,2.692
	S8.571,5.291,7.62,6.04c0.648,0.271,1.114,0.465,1.441,0.603C8.592,7.7,8.012,8.707,7.702,9.791
	c-0.308,1.084-0.345,2.244-0.504,3.391H0C0.185,10.04,0.643,7.142,4.262,6.128"/>
<path d="M17.974,6.046c0.912-0.013,1.692,0.712,1.724,1.601c0.029,0.892-0.789,1.713-1.709,1.708
	c-0.916-0.004-1.652-0.739-1.656-1.656C16.328,6.771,17.035,6.06,17.974,6.046"/>
<path fill="#FFFFFF" d="M4.753,10.875V9.801c-0.335-0.096-0.58-0.24-0.737-0.435C3.86,9.172,3.782,8.937,3.782,8.66
	c0-0.28,0.088-0.516,0.265-0.706c0.177-0.191,0.412-0.301,0.706-0.33V7.37h0.372v0.254c0.271,0.032,0.488,0.125,0.648,0.278
	C5.934,8.056,6.037,8.26,6.081,8.517L5.433,8.601c-0.04-0.201-0.142-0.338-0.308-0.41v1.003c0.41,0.111,0.689,0.255,0.838,0.432
	s0.223,0.403,0.223,0.681c0,0.31-0.093,0.57-0.28,0.782c-0.188,0.212-0.448,0.342-0.781,0.39v0.479H4.753V11.49
	c-0.295-0.036-0.536-0.146-0.72-0.331c-0.185-0.185-0.303-0.445-0.354-0.782l0.669-0.071c0.027,0.137,0.079,0.255,0.154,0.354
	C4.577,10.759,4.661,10.83,4.753,10.875 M4.753,8.183C4.652,8.218,4.572,8.275,4.512,8.357c-0.059,0.082-0.09,0.173-0.09,0.271
	c0,0.091,0.028,0.175,0.082,0.253C4.559,8.959,4.642,9.022,4.753,9.07V8.183z M5.125,10.91c0.128-0.023,0.232-0.083,0.312-0.178
	c0.081-0.095,0.121-0.206,0.121-0.335c0-0.114-0.034-0.213-0.101-0.296c-0.068-0.083-0.178-0.146-0.332-0.19V10.91z"/>
</svg>
