<?xml version="1.0" encoding="utf-8"?>
<!-- Generator: Adobe Illustrator 16.0.0, SVG Export Plug-In . SVG Version: 6.00 Build 0)  -->
<!DOCTYPE svg PUBLIC "-//W3C//DTD SVG 1.1//EN" "http://www.w3.org/Graphics/SVG/1.1/DTD/svg11.dtd">
<svg version="1.1" id="Layer_1" xmlns="http://www.w3.org/2000/svg" xmlns:xlink="http://www.w3.org/1999/xlink" x="0px" y="0px"
	 width="19.697px" height="13.182px" viewBox="0 0 19.697 13.182" enable-background="new 0 0 19.697 13.182" xml:space="preserve">
<path fill="#FFFFFF" d="M7.875,13.164h11.24c-0.119-1.166-0.23-2.263-0.347-3.402c-1.097,0.262-1.923,0.022-2.534-0.756
	c-0.609-0.776-0.52-1.65-0.152-2.514c-0.389-0.151-0.693-0.27-1.034-0.401c1.819-1.668,2.11-3.44,0.877-4.947
	c-1.05-1.279-3.05-1.527-4.37-0.534c-0.73,0.55-1.173,1.284-1.287,2.192c-0.177,1.42,0.499,2.461,1.648,3.307
	C8.857,6.861,7.85,8.957,7.875,13.164 M4.263,6.127C0.644,7.141,0.186,10.04,0,13.182h7.198c0.159-1.146,0.195-2.308,0.504-3.391
	c0.309-1.084,0.89-2.092,1.359-3.149C8.733,6.505,8.269,6.311,7.621,6.04C8.572,5.291,9.164,4.494,9.207,3.4
	C9.25,2.304,8.869,1.405,8.025,0.707C6.814-0.296,4.939-0.221,3.799,0.872C2.354,2.255,2.457,3.624,4.263,6.127 M17.974,6.046
	c-0.938,0.014-1.646,0.725-1.642,1.652c0.004,0.916,0.74,1.651,1.656,1.655c0.92,0.005,1.738-0.815,1.709-1.707
	C19.666,6.758,18.886,6.032,17.974,6.046"/>
<path fill="#CCCCCC" d="M7.876,13.164C7.85,8.957,8.858,6.861,11.917,6.107c-1.149-0.845-1.826-1.886-1.649-3.306
	c0.113-0.909,0.556-1.642,1.287-2.192c1.32-0.993,3.32-0.745,4.369,0.534c1.234,1.505,0.941,3.279-0.877,4.947
	c0.341,0.132,0.645,0.25,1.035,0.401c-0.367,0.863-0.456,1.737,0.152,2.514c0.61,0.778,1.438,1.018,2.535,0.756
	c0.115,1.14,0.227,2.236,0.346,3.402H7.876z"/>
<path fill="#CCCCCC" d="M4.262,6.127C2.456,3.624,2.353,2.255,3.799,0.872c1.14-1.093,3.016-1.168,4.226-0.165
	c0.843,0.698,1.224,1.597,1.181,2.691C9.163,4.494,8.571,5.291,7.62,6.04c0.648,0.271,1.114,0.465,1.441,0.602
	C8.592,7.699,8.012,8.707,7.702,9.791c-0.308,1.083-0.345,2.244-0.504,3.391H0C0.185,10.04,0.643,7.141,4.262,6.127"/>
<path fill="#CCCCCC" d="M17.974,6.046c0.912-0.014,1.692,0.712,1.724,1.601c0.029,0.892-0.789,1.712-1.709,1.707
	c-0.916-0.004-1.652-0.739-1.656-1.655C16.328,6.771,17.035,6.06,17.974,6.046"/>
</svg>
